<svg xmlns="http://www.w3.org/2000/svg" viewBox="0 0 96 96" role="img" aria-labelledby="title desc">
  <title id="title">Continuity icon</title>
  <desc id="desc">Circular arrows around a neatly folded garment.</desc>
  <rect width="96" height="96" rx="24" fill="#fcf9f3"/>
  <rect x="18" y="18" width="60" height="60" rx="18" fill="#f3eadb" stroke="#d1b99f" stroke-width="2"/>
  <path d="M38 61h20a6 6 0 0 0 6-6V44l-8-6-8 4-8-4-8 6v11a6 6 0 0 0 6 6Z" fill="#0f4a49"/>
  <path d="M29 44a20 20 0 0 1 30-16" fill="none" stroke="#8d5b37" stroke-linecap="round" stroke-width="3"/>
  <path d="m56 26 7 1-2-6" fill="none" stroke="#8d5b37" stroke-linecap="round" stroke-linejoin="round" stroke-width="3"/>
  <path d="M67 52a20 20 0 0 1-31 15" fill="none" stroke="#8d5b37" stroke-linecap="round" stroke-width="3"/>
  <path d="m40 67-7-1 2 6" fill="none" stroke="#8d5b37" stroke-linecap="round" stroke-linejoin="round" stroke-width="3"/>
</svg>

